<svg width="48" height="48" viewBox="0 0 48 48" fill="none" xmlns="http://www.w3.org/2000/svg">
<path d="M19 23.5001H28.2V25.9501C28.2 26.2834 28.3583 26.5168 28.675 26.6501C28.9917 26.7834 29.2667 26.7334 29.5 26.5001L32.95 23.0501C33.25 22.7501 33.4 22.3918 33.4 21.9751C33.4 21.5584 33.25 21.2001 32.95 20.9001L29.5 17.4501C29.2667 17.2168 28.9917 17.1584 28.675 17.2751C28.3583 17.3918 28.2 17.6334 28.2 18.0001V20.5001H17.5C17.0667 20.5001 16.7083 20.6418 16.425 20.9251C16.1417 21.2084 16 21.5668 16 22.0001V28.5001C16 28.9334 16.1417 29.2918 16.425 29.5751C16.7083 29.8584 17.0667 30.0001 17.5 30.0001C17.9333 30.0001 18.2917 29.8584 18.575 29.5751C18.8583 29.2918 19 28.9334 19 28.5001V23.5001ZM24 44.1501C23.6 44.1501 23.2083 44.0834 22.825 43.9501C22.4417 43.8168 22.1167 43.6168 21.85 43.3501L4.65001 26.1501C4.38334 25.8834 4.18334 25.5584 4.05001 25.1751C3.91667 24.7918 3.85001 24.4001 3.85001 24.0001C3.85001 23.6001 3.91667 23.2084 4.05001 22.8251C4.18334 22.4418 4.38334 22.1168 4.65001 21.8501L21.85 4.6501C22.1167 4.38343 22.4417 4.18343 22.825 4.0501C23.2083 3.91676 23.6 3.8501 24 3.8501C24.4 3.8501 24.7917 3.91676 25.175 4.0501C25.5583 4.18343 25.8833 4.38343 26.15 4.6501L43.35 21.8501C43.6167 22.1168 43.8167 22.4418 43.95 22.8251C44.0833 23.2084 44.15 23.6001 44.15 24.0001C44.15 24.4001 44.0833 24.7918 43.95 25.1751C43.8167 25.5584 43.6167 25.8834 43.35 26.1501L26.15 43.3501C25.8833 43.6168 25.5583 43.8168 25.175 43.9501C24.7917 44.0834 24.4 44.1501 24 44.1501ZM15.4 32.6001L24 41.2001L41.2 24.0001L24 6.8001L6.80001 24.0001L15.4 32.6001Z" fill="#404961"/>
</svg>
